<svg xmlns="http://www.w3.org/2000/svg" width="375" viewBox="0 0 375 375" height="375" version="1.0"><path fill="#4A8985" d="M 187.316406 9.289062 C 88.992188 9.289062 9.289062 88.992188 9.289062 187.316406 C 9.289062 285.636719 88.992188 365.34375 187.316406 365.34375 C 285.636719 365.34375 365.34375 285.636719 365.34375 187.316406 C 365.34375 88.992188 285.636719 9.289062 187.316406 9.289062"/><g fill="#FF914D"><g><g><path d="M 12.34375 -4.96875 L 24.148438 -18.089844 C 31.289062 -26.011719 33.386719 -29.117188 33.152344 -34.472656 C 32.921875 -42.316406 26.941406 -47.207031 19.410156 -47.285156 C 11.335938 -47.363281 4.890625 -41.773438 4.96875 -33.464844 L 10.40625 -33.464844 C 10.328125 -38.976562 14.207031 -42.394531 19.179688 -42.316406 C 23.914062 -42.238281 27.796875 -39.367188 27.796875 -33.621094 C 27.796875 -30.359375 26.632812 -28.105469 20.574219 -21.351562 L 1.085938 0 L 34.628906 0 L 34.628906 -4.96875 Z M 12.34375 -4.96875" transform="translate(130.397 285.227)"/></g></g></g><g fill="#FF914D"><g><g><path d="M 33.464844 0 L 40.375 0 L 18.246094 -25.078125 L 39.519531 -46.585938 L 32.609375 -46.585938 L 13.898438 -27.484375 L 10.636719 -27.484375 L 10.636719 -46.585938 L 5.667969 -46.585938 L 5.667969 0 L 10.636719 0 L 10.636719 -22.828125 L 13.976562 -22.828125 Z M 33.464844 0" transform="translate(174.732 285.227)"/></g></g></g><g fill="#FF914D"><g><g><path d="M 10.792969 0 L 15.761719 0 L 15.761719 -46.585938 L 3.027344 -46.585938 L 3.027344 -41.617188 L 10.792969 -41.617188 Z M 10.792969 0" transform="translate(220.775 285.227)"/></g></g></g><g fill="#FFF"><g><g><path d="M 87.171875 -2.984375 C 85.847656 -1.660156 83.929688 -0.644531 81.421875 0.0625 C 78.921875 0.78125 75.914062 1.140625 72.40625 1.140625 C 68.90625 1.140625 65.59375 0.617188 62.46875 -0.421875 C 59.34375 -1.460938 56.789062 -3.972656 54.8125 -7.953125 L 40.75 -36.625 C 39.332031 -39.5625 38.054688 -42.332031 36.921875 -44.9375 C 35.785156 -47.539062 34.550781 -50.546875 33.21875 -53.953125 L 32.375 -53.8125 C 32.75 -48.695312 32.957031 -43.488281 33 -38.1875 C 33.050781 -32.894531 33.078125 -27.691406 33.078125 -22.578125 L 33.078125 -0.5625 C 32.035156 -0.28125 30.445312 0 28.3125 0.28125 C 26.1875 0.5625 24.082031 0.703125 22 0.703125 C 19.925781 0.703125 18.082031 0.5625 16.46875 0.28125 C 14.863281 0 13.539062 -0.566406 12.5 -1.421875 C 11.457031 -2.273438 10.648438 -3.429688 10.078125 -4.890625 C 9.515625 -6.359375 9.234375 -8.28125 9.234375 -10.65625 L 9.234375 -81.640625 C 10.554688 -83.535156 12.585938 -84.957031 15.328125 -85.90625 C 18.078125 -86.851562 21.015625 -87.328125 24.140625 -87.328125 C 27.640625 -87.328125 30.972656 -86.78125 34.140625 -85.6875 C 37.316406 -84.601562 39.851562 -82.117188 41.75 -78.234375 L 55.9375 -49.546875 C 57.363281 -46.617188 58.644531 -43.851562 59.78125 -41.25 C 60.914062 -38.644531 62.144531 -35.640625 63.46875 -32.234375 L 64.171875 -32.375 C 63.796875 -37.488281 63.5625 -42.597656 63.46875 -47.703125 C 63.375 -52.816406 63.328125 -57.929688 63.328125 -63.046875 L 63.328125 -86.046875 C 64.367188 -86.328125 65.953125 -86.609375 68.078125 -86.890625 C 70.210938 -87.179688 72.320312 -87.328125 74.40625 -87.328125 C 78.5625 -87.328125 81.726562 -86.59375 83.90625 -85.125 C 86.082031 -83.65625 87.171875 -80.601562 87.171875 -75.96875 Z M 87.171875 -2.984375" transform="translate(53.043 222.44)"/></g></g></g><g fill="#FFF"><g><g><path d="M 41.453125 -46.140625 C 45.429688 -46.140625 48.484375 -47.0625 50.609375 -48.90625 C 52.742188 -50.757812 53.8125 -53.578125 53.8125 -57.359375 C 53.8125 -60.953125 52.695312 -63.71875 50.46875 -65.65625 C 48.25 -67.601562 45.007812 -68.578125 40.75 -68.578125 C 39.238281 -68.578125 37.984375 -68.550781 36.984375 -68.5 C 35.992188 -68.457031 34.976562 -68.34375 33.9375 -68.15625 L 33.9375 -46.140625 Z M 34.078125 -0.5625 C 33.035156 -0.28125 31.398438 0 29.171875 0.28125 C 26.953125 0.5625 24.753906 0.703125 22.578125 0.703125 C 20.398438 0.703125 18.484375 0.535156 16.828125 0.203125 C 15.171875 -0.117188 13.773438 -0.707031 12.640625 -1.5625 C 11.503906 -2.414062 10.648438 -3.597656 10.078125 -5.109375 C 9.515625 -6.628906 9.234375 -8.617188 9.234375 -11.078125 L 9.234375 -77.953125 C 9.234375 -79.941406 9.773438 -81.476562 10.859375 -82.5625 C 11.953125 -83.65625 13.441406 -84.53125 15.328125 -85.1875 C 18.546875 -86.320312 22.210938 -87.148438 26.328125 -87.671875 C 30.453125 -88.191406 34.597656 -88.453125 38.765625 -88.453125 C 51.828125 -88.453125 61.8125 -85.660156 68.71875 -80.078125 C 75.625 -74.492188 79.078125 -66.921875 79.078125 -57.359375 C 79.078125 -52.722656 78.34375 -48.535156 76.875 -44.796875 C 75.414062 -41.054688 73.238281 -37.835938 70.34375 -35.140625 C 67.457031 -32.441406 63.8125 -30.359375 59.40625 -28.890625 C 55.007812 -27.421875 49.925781 -26.6875 44.15625 -26.6875 L 34.078125 -26.6875 Z M 34.078125 -0.5625" transform="translate(149.446 222.44)"/></g></g></g><g fill="#FFF"><g><g><path d="M 60.765625 -2.84375 C 59.441406 -1.707031 57.382812 -0.710938 54.59375 0.140625 C 51.800781 0.992188 48.75 1.421875 45.4375 1.421875 C 41.457031 1.421875 38.046875 0.832031 35.203125 -0.34375 C 32.367188 -1.53125 30.429688 -3.164062 29.390625 -5.25 C 28.347656 -7.425781 27.066406 -10.242188 25.546875 -13.703125 C 24.035156 -17.160156 22.453125 -21.015625 20.796875 -25.265625 C 19.140625 -29.523438 17.4375 -34.046875 15.6875 -38.828125 C 13.9375 -43.609375 12.253906 -48.457031 10.640625 -53.375 C 9.035156 -58.300781 7.519531 -63.128906 6.09375 -67.859375 C 4.675781 -72.597656 3.445312 -77.050781 2.40625 -81.21875 C 3.738281 -82.539062 5.65625 -83.742188 8.15625 -84.828125 C 10.664062 -85.921875 13.34375 -86.46875 16.1875 -86.46875 C 19.6875 -86.46875 22.546875 -85.734375 24.765625 -84.265625 C 26.992188 -82.796875 28.628906 -80.078125 29.671875 -76.109375 C 32.234375 -66.828125 34.8125 -57.953125 37.40625 -49.484375 C 40.007812 -41.015625 42.734375 -32.1875 45.578125 -23 L 46.421875 -23 C 48.984375 -31.894531 51.613281 -41.597656 54.3125 -52.109375 C 57.007812 -62.617188 59.585938 -73.078125 62.046875 -83.484375 C 63.753906 -84.335938 65.578125 -85.046875 67.515625 -85.609375 C 69.453125 -86.179688 71.648438 -86.46875 74.109375 -86.46875 C 77.617188 -86.46875 80.601562 -85.6875 83.0625 -84.125 C 85.519531 -82.5625 86.75 -79.984375 86.75 -76.390625 C 86.75 -74.304688 86.25 -71.273438 85.25 -67.296875 C 84.257812 -63.328125 82.984375 -58.851562 81.421875 -53.875 C 79.859375 -48.90625 78.109375 -43.722656 76.171875 -38.328125 C 74.234375 -32.941406 72.289062 -27.859375 70.34375 -23.078125 C 68.40625 -18.296875 66.582031 -14.082031 64.875 -10.4375 C 63.175781 -6.789062 61.804688 -4.257812 60.765625 -2.84375 Z M 60.765625 -2.84375" transform="translate(231.935 222.44)"/></g></g></g></svg>